<?xml version="1.0" standalone="no"?>
<!DOCTYPE svg PUBLIC "-//W3C//DTD SVG 20010904//EN"
 "http://www.w3.org/TR/2001/REC-SVG-20010904/DTD/svg10.dtd">
<svg version="1.0" xmlns="http://www.w3.org/2000/svg"
 width="147.000000pt" height="147.000000pt" viewBox="0 0 147.000000 147.000000"
 preserveAspectRatio="xMidYMid meet">
<metadata>
Created by potrace 1.11, written by Peter Selinger 2001-2013
</metadata>
<g transform="translate(0.000000,147.000000) scale(0.100000,-0.100000)"
fill="#000000" stroke="none">
<path d="M300 1443 c0 -5 -21 -14 -47 -21 -78 -21 -111 -42 -151 -96 -51 -68
-54 -78 -53 -170 2 -86 4 -91 86 -177 43 -45 177 -124 189 -112 3 4 6 1 6 -5
0 -6 13 -13 29 -17 16 -3 34 -12 40 -19 6 -7 29 -19 51 -26 25 -8 47 -24 57
-40 9 -15 28 -35 44 -44 37 -22 44 -47 29 -118 -24 -111 -100 -158 -255 -158
-58 0 -67 3 -105 35 -23 19 -46 35 -51 35 -5 0 -9 5 -9 12 0 6 -7 19 -15 28
-8 9 -26 43 -39 76 -17 42 -30 59 -42 59 -11 0 -20 -9 -23 -20 -2 -11 -12 -32
-22 -47 -24 -33 -25 -100 -2 -119 9 -8 22 -28 29 -45 10 -24 22 -33 48 -38 19
-4 46 -16 61 -27 14 -12 28 -19 31 -17 2 3 35 -1 72 -8 118 -23 237 -12 299
27 31 19 39 5 15 -28 -11 -15 -23 -47 -27 -71 -4 -24 -13 -46 -20 -48 -7 -3
-21 -32 -31 -64 -13 -44 -24 -61 -43 -70 -60 -27 -95 -48 -99 -59 -5 -14 316
-13 324 1 9 14 -16 38 -40 38 -26 0 -46 18 -46 40 0 13 18 59 76 198 13 30 17
32 56 31 24 -1 68 2 98 6 30 4 74 2 98 -3 26 -6 44 -6 48 0 3 5 31 8 62 6 57
-3 57 -3 60 -37 2 -18 14 -50 26 -70 40 -64 57 -118 46 -146 -8 -22 -16 -25
-55 -25 -41 0 -45 -2 -45 -25 l0 -25 195 0 c139 0 195 3 195 11 0 17 -32 38
-58 39 -32 0 -64 19 -56 32 4 5 3 13 -2 17 -16 11 -52 85 -59 121 -4 19 -16
49 -26 66 -10 17 -19 40 -19 50 0 11 -9 33 -19 50 -24 39 -117 259 -127 299
-4 17 -19 55 -34 85 -15 30 -33 76 -40 103 -7 26 -17 50 -21 53 -5 3 -9 13 -9
23 0 24 -37 98 -51 103 -19 6 -85 -69 -104 -117 -9 -25 -21 -45 -26 -45 -5 0
-9 -11 -9 -25 0 -15 -8 -40 -17 -58 -10 -18 -22 -47 -28 -66 -14 -48 -32 -49
-51 -3 -12 26 -33 49 -62 68 -118 76 -172 107 -228 134 -64 29 -156 87 -187
117 -18 17 -37 73 -37 108 0 32 32 82 69 110 31 22 45 25 119 25 75 0 89 -3
126 -27 40 -26 96 -100 96 -126 0 -7 10 -18 21 -25 33 -21 47 2 50 83 4 115 3
119 -36 138 -20 9 -44 17 -55 17 -10 0 -23 6 -27 14 -9 15 -50 23 -165 32 -45
4 -78 3 -78 -3z m596 -591 c-3 -10 3 -30 14 -47 11 -16 20 -38 20 -47 0 -10
15 -51 34 -90 41 -88 71 -182 63 -202 -5 -12 -28 -15 -112 -15 -86 -1 -205 13
-205 23 0 1 11 26 25 55 14 28 32 77 40 108 8 31 22 64 30 73 8 9 15 24 15 34
0 17 43 116 56 129 11 11 25 -4 20 -21z"/>
<path d="M493 1443 c9 -2 23 -2 30 0 6 3 -1 5 -18 5 -16 0 -22 -2 -12 -5z"/>
</g>
</svg>
